<?xml version="1.0" standalone="no"?><!DOCTYPE svg PUBLIC "-//W3C//DTD SVG 1.1//EN" "http://www.w3.org/Graphics/SVG/1.1/DTD/svg11.dtd"><svg t="1667910263154" class="icon" viewBox="0 0 1024 1024" version="1.1" xmlns="http://www.w3.org/2000/svg" p-id="6514" width="32" height="32" xmlns:xlink="http://www.w3.org/1999/xlink"><path d="M441.379885 394.267671l188.890018 0 0 125.925669-188.890018 0 0-125.925669Z" p-id="6515" fill="#707070"></path><path d="M504.344234 16.488644c-278.231352 0-503.704697 225.535936-503.704697 503.704697 0 278.167751 225.473345 503.703687 503.704697 503.703687 278.229333 0 503.703687-225.535936 503.703687-503.703687C1008.047921 242.02458 782.572557 16.488644 504.344234 16.488644zM441.379885 709.08235 315.454215 709.08235l0 62.963339-62.963339 0L252.490876 709.08235l62.963339 0 0-62.96233 125.925669 0L441.379885 709.08235zM819.157903 772.045689l-62.96132 0L756.196582 709.08235 630.269903 709.08235l0-62.96233 125.926679 0L756.196582 709.08235l62.96132 0L819.157903 772.045689zM819.157903 583.15668 693.232233 583.15668l-62.96233 0L441.379885 583.15668l-62.96233 0L252.490876 583.15668l0-62.963339 125.925669 0L378.416545 394.267671 315.454215 394.267671l0-62.963339 62.963339 0L378.417555 205.377653l62.96233 0 0 125.925669 188.890018 0L630.269903 205.377653l62.96233 0 0 125.925669 62.964349 0 0 62.963339-62.964349 0 0 125.925669 125.925669 0L819.157903 583.15668z" p-id="6516" fill="#707070"></path></svg>