<?xml version="1.0" standalone="no"?><!DOCTYPE svg PUBLIC "-//W3C//DTD SVG 1.1//EN" "http://www.w3.org/Graphics/SVG/1.1/DTD/svg11.dtd"><svg t="1668159246594" class="icon" viewBox="0 0 1024 1024" version="1.1" xmlns="http://www.w3.org/2000/svg" p-id="2640" xmlns:xlink="http://www.w3.org/1999/xlink" width="32" height="32"><path d="M992 512.333c0-265.149-214.518-480.333-479.667-480.333-265.149 0-480.333 215.183-480.333 480.333 0 265.149 215.183 479.667 480.333 479.667 265.149 0 479.667-214.518 479.667-479.667zM75.97 512.333c0-241.166 195.198-436.364 436.364-436.364 241.166 0 436.364 195.198 436.364 436.364 0 241.166-195.198 436.364-436.364 436.364-241.166 0-436.364-195.198-436.364-436.364zM656.899 888.738c0 0 85.941 0 85.941-79.944v-296.461c0-26.648-41.304-27.981-41.304 0.667v213.186h-397.058v-494.99c0-41.304 46.634-41.304 46.634-41.304h303.789c0 0 46.634 0 46.634 41.304v25.315c0 26.648 41.304 25.982 41.304 0.667v-31.978c0-79.278-85.941-79.278-85.941-79.278h-307.786c0 0-86.606 0-86.606 79.278v583.595c0 79.944 86.606 79.944 86.606 79.944h307.786zM304.478 807.462v-41.971h397.058v41.971c0 41.304-46.634 41.304-46.634 41.304h-303.789c0 0-46.634 0-46.634-41.304zM469.030 780.813h67.953c11.992 0 21.319 9.327 21.319 20.652v0c0 10.659-9.327 19.987-21.319 19.987h-67.953c-11.992 0-21.319-9.327-21.319-19.987v0c0-11.326 9.327-20.652 21.319-20.652zM854.762 337.787c0 0 17.321-37.973 5.33-52.63l-23.983-28.647c-11.992-14.657-52.63-4.663-52.63-4.663l-59.959 49.965-272.478 225.843c-68.619 56.627 4.663 141.235 69.952 86.606l283.136-235.17 18.653-14.657 31.978-26.648zM746.837 329.793l23.983 28.647-269.813 223.845c-27.981 23.317-51.964-4.663-23.983-27.981l269.813-224.511z" p-id="2641" fill="#8a8a8a"></path></svg>